<mxfile host="app.diagrams.net" modified="2023-03-31T12:44:16.424Z" agent="Mozilla/5.0 (Macintosh; Intel Mac OS X 10_15_7) AppleWebKit/537.36 (KHTML, like Gecko) Chrome/111.0.0.0 Safari/537.36" etag="cDypsoq4zOUZ03ZdDtuq" version="21.1.2" type="device">
  <diagram name="Page-1" id="j61EQ_yQ_Mo7Y-l2gbru">
    <mxGraphModel dx="1057" dy="486" grid="0" gridSize="10" guides="1" tooltips="1" connect="1" arrows="1" fold="1" page="0" pageScale="1" pageWidth="827" pageHeight="1169" math="0" shadow="0">
      <root>
        <mxCell id="0" />
        <mxCell id="1" parent="0" />
        <mxCell id="-1Zy-BuF8MPBCuA15nqm-2" style="edgeStyle=orthogonalEdgeStyle;rounded=0;orthogonalLoop=1;jettySize=auto;html=1;exitX=0.5;exitY=0.5;exitDx=0;exitDy=0;exitPerimeter=0;entryX=0;entryY=0.5;entryDx=0;entryDy=0;" parent="1" source="-1Zy-BuF8MPBCuA15nqm-1" target="-1Zy-BuF8MPBCuA15nqm-3" edge="1">
          <mxGeometry relative="1" as="geometry">
            <mxPoint x="310" y="120" as="targetPoint" />
          </mxGeometry>
        </mxCell>
        <mxCell id="-1Zy-BuF8MPBCuA15nqm-4" value="Receives an assessment request" style="edgeLabel;html=1;align=center;verticalAlign=middle;resizable=0;points=[];" parent="-1Zy-BuF8MPBCuA15nqm-2" vertex="1" connectable="0">
          <mxGeometry x="0.2343" y="1" relative="1" as="geometry">
            <mxPoint x="-20" y="1" as="offset" />
          </mxGeometry>
        </mxCell>
        <mxCell id="-1Zy-BuF8MPBCuA15nqm-1" value="Candidate" style="shape=umlActor;verticalLabelPosition=bottom;verticalAlign=top;html=1;outlineConnect=0;" parent="1" vertex="1">
          <mxGeometry x="140" y="90" width="30" height="60" as="geometry" />
        </mxCell>
        <mxCell id="-1Zy-BuF8MPBCuA15nqm-6" style="edgeStyle=orthogonalEdgeStyle;rounded=0;orthogonalLoop=1;jettySize=auto;html=1;exitX=1;exitY=0.5;exitDx=0;exitDy=0;entryX=0;entryY=0.5;entryDx=0;entryDy=0;" parent="1" source="-1Zy-BuF8MPBCuA15nqm-3" target="-1Zy-BuF8MPBCuA15nqm-5" edge="1">
          <mxGeometry relative="1" as="geometry" />
        </mxCell>
        <mxCell id="-1Zy-BuF8MPBCuA15nqm-8" value="Yes" style="edgeLabel;html=1;align=center;verticalAlign=middle;resizable=0;points=[];" parent="-1Zy-BuF8MPBCuA15nqm-6" vertex="1" connectable="0">
          <mxGeometry x="-0.2" y="-2" relative="1" as="geometry">
            <mxPoint y="-2" as="offset" />
          </mxGeometry>
        </mxCell>
        <mxCell id="1_Vyh3dZbqvXK6EHyWsz-2" value="" style="edgeStyle=orthogonalEdgeStyle;rounded=0;orthogonalLoop=1;jettySize=auto;html=1;" parent="1" source="-1Zy-BuF8MPBCuA15nqm-3" target="1_Vyh3dZbqvXK6EHyWsz-1" edge="1">
          <mxGeometry relative="1" as="geometry" />
        </mxCell>
        <mxCell id="1_Vyh3dZbqvXK6EHyWsz-3" value="No" style="edgeLabel;html=1;align=center;verticalAlign=middle;resizable=0;points=[];" parent="1_Vyh3dZbqvXK6EHyWsz-2" vertex="1" connectable="0">
          <mxGeometry x="-0.0444" y="2" relative="1" as="geometry">
            <mxPoint as="offset" />
          </mxGeometry>
        </mxCell>
        <mxCell id="-1Zy-BuF8MPBCuA15nqm-3" value="Declines the request?" style="rhombus;whiteSpace=wrap;html=1;" parent="1" vertex="1">
          <mxGeometry x="364" y="75" width="100" height="90" as="geometry" />
        </mxCell>
        <mxCell id="-1Zy-BuF8MPBCuA15nqm-5" value="certificationRequestRejected" style="rounded=1;whiteSpace=wrap;html=1;fillColor=#d5e8d4;strokeColor=#82b366;" parent="1" vertex="1">
          <mxGeometry x="632" y="100.5" width="220" height="39" as="geometry" />
        </mxCell>
        <mxCell id="-1Zy-BuF8MPBCuA15nqm-20" value="Yes" style="edgeStyle=orthogonalEdgeStyle;rounded=0;orthogonalLoop=1;jettySize=auto;html=1;exitX=1;exitY=0.5;exitDx=0;exitDy=0;entryX=0;entryY=0.5;entryDx=0;entryDy=0;" parent="1" source="-1Zy-BuF8MPBCuA15nqm-16" target="-1Zy-BuF8MPBCuA15nqm-19" edge="1">
          <mxGeometry relative="1" as="geometry" />
        </mxCell>
        <mxCell id="FR3dy2BTDJLIQN8Zkv-p-1" style="edgeStyle=orthogonalEdgeStyle;rounded=0;orthogonalLoop=1;jettySize=auto;html=1;" parent="1" source="-1Zy-BuF8MPBCuA15nqm-16" edge="1">
          <mxGeometry relative="1" as="geometry">
            <mxPoint x="300" y="530" as="targetPoint" />
          </mxGeometry>
        </mxCell>
        <mxCell id="-1Zy-BuF8MPBCuA15nqm-16" value="Completes an assessment?" style="rhombus;whiteSpace=wrap;html=1;" parent="1" vertex="1">
          <mxGeometry x="364" y="350" width="100" height="90" as="geometry" />
        </mxCell>
        <mxCell id="ZH-i35oEJuskvQAQqU1v-2" style="edgeStyle=orthogonalEdgeStyle;rounded=0;orthogonalLoop=1;jettySize=auto;html=1;exitX=0.5;exitY=1;exitDx=0;exitDy=0;entryX=0.5;entryY=0;entryDx=0;entryDy=0;" parent="1" source="-1Zy-BuF8MPBCuA15nqm-19" target="-1Zy-BuF8MPBCuA15nqm-24" edge="1">
          <mxGeometry relative="1" as="geometry" />
        </mxCell>
        <mxCell id="ZH-i35oEJuskvQAQqU1v-3" value="Session is finished" style="edgeLabel;html=1;align=center;verticalAlign=middle;resizable=0;points=[];" parent="ZH-i35oEJuskvQAQqU1v-2" vertex="1" connectable="0">
          <mxGeometry x="-0.1644" y="2" relative="1" as="geometry">
            <mxPoint as="offset" />
          </mxGeometry>
        </mxCell>
        <mxCell id="-1Zy-BuF8MPBCuA15nqm-19" value="certificationResultPending" style="rounded=1;whiteSpace=wrap;html=1;fillColor=#d5e8d4;strokeColor=#82b366;" parent="1" vertex="1">
          <mxGeometry x="630" y="375.5" width="220" height="39" as="geometry" />
        </mxCell>
        <mxCell id="FR3dy2BTDJLIQN8Zkv-p-7" style="edgeStyle=orthogonalEdgeStyle;rounded=0;orthogonalLoop=1;jettySize=auto;html=1;entryX=1;entryY=0.5;entryDx=0;entryDy=0;" parent="1" source="-1Zy-BuF8MPBCuA15nqm-24" target="FR3dy2BTDJLIQN8Zkv-p-5" edge="1">
          <mxGeometry relative="1" as="geometry" />
        </mxCell>
        <mxCell id="FR3dy2BTDJLIQN8Zkv-p-8" value="No" style="edgeLabel;html=1;align=center;verticalAlign=middle;resizable=0;points=[];" parent="FR3dy2BTDJLIQN8Zkv-p-7" vertex="1" connectable="0">
          <mxGeometry x="-0.1471" relative="1" as="geometry">
            <mxPoint as="offset" />
          </mxGeometry>
        </mxCell>
        <mxCell id="FR3dy2BTDJLIQN8Zkv-p-11" value="Yes" style="edgeStyle=orthogonalEdgeStyle;rounded=0;orthogonalLoop=1;jettySize=auto;html=1;entryX=1;entryY=0.5;entryDx=0;entryDy=0;" parent="1" source="-1Zy-BuF8MPBCuA15nqm-24" target="1_Vyh3dZbqvXK6EHyWsz-6" edge="1">
          <mxGeometry x="-0.7517" relative="1" as="geometry">
            <Array as="points">
              <mxPoint x="886" y="550" />
              <mxPoint x="886" y="255" />
            </Array>
            <mxPoint as="offset" />
          </mxGeometry>
        </mxCell>
        <mxCell id="-1Zy-BuF8MPBCuA15nqm-24" value="Verified?" style="rhombus;whiteSpace=wrap;html=1;" parent="1" vertex="1">
          <mxGeometry x="700" y="510" width="80" height="80" as="geometry" />
        </mxCell>
        <mxCell id="-1Zy-BuF8MPBCuA15nqm-32" value="certificationRequestExpired" style="rounded=1;whiteSpace=wrap;html=1;fillColor=#d5e8d4;strokeColor=#82b366;" parent="1" vertex="1">
          <mxGeometry x="190" y="680" width="220" height="39" as="geometry" />
        </mxCell>
        <mxCell id="ZH-i35oEJuskvQAQqU1v-6" style="edgeStyle=orthogonalEdgeStyle;rounded=0;orthogonalLoop=1;jettySize=auto;html=1;exitX=0.5;exitY=1;exitDx=0;exitDy=0;entryX=0.5;entryY=0;entryDx=0;entryDy=0;" parent="1" source="ZH-i35oEJuskvQAQqU1v-4" target="-1Zy-BuF8MPBCuA15nqm-32" edge="1">
          <mxGeometry relative="1" as="geometry" />
        </mxCell>
        <mxCell id="ZH-i35oEJuskvQAQqU1v-7" value="Yes" style="edgeLabel;html=1;align=center;verticalAlign=middle;resizable=0;points=[];" parent="ZH-i35oEJuskvQAQqU1v-6" vertex="1" connectable="0">
          <mxGeometry x="-0.3" y="2" relative="1" as="geometry">
            <mxPoint as="offset" />
          </mxGeometry>
        </mxCell>
        <mxCell id="ZH-i35oEJuskvQAQqU1v-4" value="Expired?" style="rhombus;whiteSpace=wrap;html=1;" parent="1" vertex="1">
          <mxGeometry x="260" y="510" width="80" height="80" as="geometry" />
        </mxCell>
        <mxCell id="ZH-i35oEJuskvQAQqU1v-5" value="No" style="edgeStyle=orthogonalEdgeStyle;rounded=0;orthogonalLoop=1;jettySize=auto;html=1;exitX=1;exitY=0.5;exitDx=0;exitDy=0;entryX=0.5;entryY=0;entryDx=0;entryDy=0;" parent="1" source="ZH-i35oEJuskvQAQqU1v-4" target="ZH-i35oEJuskvQAQqU1v-4" edge="1">
          <mxGeometry x="0.25" relative="1" as="geometry">
            <Array as="points">
              <mxPoint x="340" y="460" />
              <mxPoint x="300" y="460" />
            </Array>
            <mxPoint as="offset" />
          </mxGeometry>
        </mxCell>
        <mxCell id="1_Vyh3dZbqvXK6EHyWsz-4" value="" style="edgeStyle=orthogonalEdgeStyle;rounded=0;orthogonalLoop=1;jettySize=auto;html=1;" parent="1" source="1_Vyh3dZbqvXK6EHyWsz-1" target="-1Zy-BuF8MPBCuA15nqm-16" edge="1">
          <mxGeometry relative="1" as="geometry" />
        </mxCell>
        <mxCell id="1_Vyh3dZbqvXK6EHyWsz-5" value="No" style="edgeLabel;html=1;align=center;verticalAlign=middle;resizable=0;points=[];" parent="1_Vyh3dZbqvXK6EHyWsz-4" vertex="1" connectable="0">
          <mxGeometry x="-0.1" y="1" relative="1" as="geometry">
            <mxPoint as="offset" />
          </mxGeometry>
        </mxCell>
        <mxCell id="1_Vyh3dZbqvXK6EHyWsz-7" value="" style="edgeStyle=orthogonalEdgeStyle;rounded=0;orthogonalLoop=1;jettySize=auto;html=1;" parent="1" source="1_Vyh3dZbqvXK6EHyWsz-1" target="1_Vyh3dZbqvXK6EHyWsz-6" edge="1">
          <mxGeometry relative="1" as="geometry" />
        </mxCell>
        <mxCell id="1_Vyh3dZbqvXK6EHyWsz-8" value="Yes" style="edgeLabel;html=1;align=center;verticalAlign=middle;resizable=0;points=[];" parent="1_Vyh3dZbqvXK6EHyWsz-7" vertex="1" connectable="0">
          <mxGeometry x="-0.0575" y="2" relative="1" as="geometry">
            <mxPoint y="1" as="offset" />
          </mxGeometry>
        </mxCell>
        <mxCell id="1_Vyh3dZbqvXK6EHyWsz-1" value="&lt;p style=&quot;line-height: 100%;&quot;&gt;Shares existing result?&lt;/p&gt;" style="rhombus;whiteSpace=wrap;html=1;" parent="1" vertex="1">
          <mxGeometry x="364" y="210" width="100" height="90" as="geometry" />
        </mxCell>
        <mxCell id="1_Vyh3dZbqvXK6EHyWsz-6" value="certificationResultShared" style="rounded=1;whiteSpace=wrap;html=1;fillColor=#d5e8d4;strokeColor=#82b366;" parent="1" vertex="1">
          <mxGeometry x="632" y="235.5" width="220" height="39" as="geometry" />
        </mxCell>
        <mxCell id="FR3dy2BTDJLIQN8Zkv-p-9" style="edgeStyle=orthogonalEdgeStyle;rounded=0;orthogonalLoop=1;jettySize=auto;html=1;" parent="1" source="FR3dy2BTDJLIQN8Zkv-p-5" edge="1">
          <mxGeometry relative="1" as="geometry">
            <mxPoint x="340" y="550" as="targetPoint" />
          </mxGeometry>
        </mxCell>
        <mxCell id="FR3dy2BTDJLIQN8Zkv-p-5" value="certificationResultNotCertified" style="rounded=1;whiteSpace=wrap;html=1;fillColor=#d5e8d4;strokeColor=#82b366;" parent="1" vertex="1">
          <mxGeometry x="412" y="530.5" width="220" height="39" as="geometry" />
        </mxCell>
      </root>
    </mxGraphModel>
  </diagram>
</mxfile>
